<svg xmlns="http://www.w3.org/2000/svg" viewBox="0 0 16.699 7.233"><defs><style>.a{fill:#DB1D6A;}</style></defs><path class="a" d="M10.236,6.541a.5.5,0,0,1-.484-.071,1.031,1.031,0,0,1-.3-.513,3.581,3.581,0,0,1-.128-1.014,9.068,9.068,0,0,1,.1-1.347,13.887,13.887,0,0,1,.322-1.55q.215-.81.517-1.626a2.328,2.328,0,0,0-.25.18,2.3,2.3,0,0,0-.271.251,7.715,7.715,0,0,0-.574.713c-.2.282-.406.585-.609.91s-.4.655-.59.99-.362.658-.518.968-.287.59-.392.837a4.539,4.539,0,0,0-.219.6,1.744,1.744,0,0,0-.023.2l-.01.179a.15.15,0,0,1-.041.091.19.19,0,0,1-.091.064.105.105,0,0,1-.091-.016.215.215,0,0,1-.073-.121.883.883,0,0,1-.027-.145,1.486,1.486,0,0,1,0-.211,3.549,3.549,0,0,1,.058-.4c.037-.207.085-.465.144-.772s.122-.641.191-1,.132-.727.192-1.094a7.2,7.2,0,0,0,.086-.761,1.891,1.891,0,0,0-.064-.665A.671.671,0,0,0,6.773.8.87.87,0,0,0,6.105.81a7.006,7.006,0,0,0-1.232.516,10.129,10.129,0,0,0-1.213.758A12.235,12.235,0,0,0,2.543,3,10.435,10.435,0,0,0,1.59,4,7.544,7.544,0,0,0,.878,5a3.649,3.649,0,0,0-.4.92,1.408,1.408,0,0,0-.01.767q.093.3.274.356a.648.648,0,0,0,.385-.006,1.5,1.5,0,0,0,.288-.124l.261-.144a.109.109,0,0,1,.037-.019c.053-.016.084-.006.095.029s-.006.051-.041.077a3.48,3.48,0,0,1-.3.178,2.025,2.025,0,0,1-.334.138,1.483,1.483,0,0,1-.453.066.692.692,0,0,1-.39-.117.66.66,0,0,1-.246-.369,1.359,1.359,0,0,1,.027-.779,3.876,3.876,0,0,1,.444-.949,8.061,8.061,0,0,1,.777-1.033A11.942,11.942,0,0,1,2.321,2.952,12.776,12.776,0,0,1,3.521,2a11.377,11.377,0,0,1,1.29-.785A7.615,7.615,0,0,1,6.1.682,1.4,1.4,0,0,1,7.014.629a.717.717,0,0,1,.415.478,1.926,1.926,0,0,1,.066.65,6.171,6.171,0,0,1-.1.8c-.018.1-.047.248-.086.456s-.083.447-.132.717-.1.552-.147.844-.093.57-.132.836c.092-.248.209-.529.351-.845s.3-.648.488-1,.377-.695.584-1.042.422-.681.644-1,.445-.608.667-.867c.105-.123.211-.239.316-.348a2.807,2.807,0,0,1,.315-.282.251.251,0,0,1,.2-.019.352.352,0,0,1,.2.089.447.447,0,0,1,.025.211.834.834,0,0,1-.1.342,7.129,7.129,0,0,0-.432,1.061A10.412,10.412,0,0,0,9.856,2.9a11.066,11.066,0,0,0-.171,1.174,8.144,8.144,0,0,0-.031,1.048,3.312,3.312,0,0,0,.119.8.8.8,0,0,0,.2.359.292.292,0,0,0,.3.061,1.032,1.032,0,0,0,.351-.211,3.815,3.815,0,0,0,.381-.371,4.414,4.414,0,0,0,.313-.382l.008-.01h0q.019-.006.03.027a.073.073,0,0,1-.008.067,1.71,1.71,0,0,1-.1.177,2.843,2.843,0,0,1-.209.29,2.671,2.671,0,0,1-.3.313,1.579,1.579,0,0,1-.368.249l-.072.033Zm1.753-1.955a1.237,1.237,0,0,1-.295.054.947.947,0,0,1-.276-.023.641.641,0,0,1-.278-.148.531.531,0,0,1-.148-.238A.932.932,0,0,1,11,3.705a2.251,2.251,0,0,1,.271-.6,2.912,2.912,0,0,1,.432-.544,1.426,1.426,0,0,1,.3-.236,1.482,1.482,0,0,1,.29-.131.385.385,0,0,1,.31-.005.3.3,0,0,1,.126.165.44.44,0,0,1,0,.259,1.031,1.031,0,0,1-.152.29A2.667,2.667,0,0,1,12,3.479a4.348,4.348,0,0,1-.831.5,1.237,1.237,0,0,0-.015.148.4.4,0,0,0,.017.138.317.317,0,0,0,.166.2.564.564,0,0,0,.28.051,1.4,1.4,0,0,0,.316-.057c.053-.016.1-.035.155-.055a1.435,1.435,0,0,0,.138-.064,2.973,2.973,0,0,0,.615-.46,5.554,5.554,0,0,0,.554-.614,7.067,7.067,0,0,0,.45-.639.073.073,0,0,1,.031-.017c.017-.005.027,0,.03,0a.107.107,0,0,1-.01.061,1.036,1.036,0,0,1-.124.26q-.1.168-.243.354c-.093.124-.185.241-.276.353s-.165.2-.226.266a2.774,2.774,0,0,1-.475.4A2.126,2.126,0,0,1,11.989,4.586Zm-.8-.731c.094-.053.205-.119.333-.2s.26-.17.394-.27a3.332,3.332,0,0,0,.36-.311,1.086,1.086,0,0,0,.228-.31.35.35,0,0,0,.035-.261.12.12,0,0,0-.067-.077.255.255,0,0,0-.168.012.852.852,0,0,0-.3.185,2.586,2.586,0,0,0-.327.351,3.582,3.582,0,0,0-.293.437A2.158,2.158,0,0,0,11.192,3.855Zm4.329-.349A.5.5,0,0,1,15.1,3.5a.479.479,0,0,1-.2-.276,1.152,1.152,0,0,1-.048-.319c0-.116,0-.228.006-.335l-.169.338c-.072.142-.154.287-.246.438a2.628,2.628,0,0,1-.3.4.785.785,0,0,1-.335.227.375.375,0,0,1-.176.011.4.4,0,0,1-.176-.082.491.491,0,0,1-.167-.243.769.769,0,0,1,.008-.453c.048-.163.092-.311.133-.442a4.132,4.132,0,0,1,.148-.408.358.358,0,0,0,.044-.231.119.119,0,0,0-.072-.072A.089.089,0,0,1,13.491,2c-.014-.044.01-.061.07-.05a.436.436,0,0,1,.221.09.359.359,0,0,1,.136.187.293.293,0,0,1,0,.171.845.845,0,0,1-.089.235,2.576,2.576,0,0,0-.134.3c-.022.055-.05.139-.085.252a2.272,2.272,0,0,0-.076.346.662.662,0,0,0,.009.287.123.123,0,0,0,.177.089.56.56,0,0,0,.226-.151,2.864,2.864,0,0,0,.228-.252,1.97,1.97,0,0,0,.149-.2c.1-.16.21-.341.319-.541a5.792,5.792,0,0,0,.276-.586.19.19,0,0,1,.111-.128.141.141,0,0,1,.124.02.2.2,0,0,1,.081.111.211.211,0,0,1,0,.122,4.544,4.544,0,0,0-.09.465,1.08,1.08,0,0,0,.034.476.33.33,0,0,0,.111.174.211.211,0,0,0,.2.019.867.867,0,0,0,.244-.139,1.659,1.659,0,0,0,.5-.652,2.37,2.37,0,0,0,.205-.948A1.2,1.2,0,0,0,16.4,1.3a.529.529,0,0,0-.206-.313.319.319,0,0,0-.231-.062.812.812,0,0,0-.121.062.516.516,0,0,0-.178.2.058.058,0,0,1-.033.032c-.022.006-.037,0-.045-.03a.178.178,0,0,1,.038-.133A.778.778,0,0,1,15.7.954c.032-.036.059-.065.081-.086a.657.657,0,0,1,.2-.112.457.457,0,0,1,.4.054.667.667,0,0,1,.268.388,1.174,1.174,0,0,1,.044.212,1.029,1.029,0,0,1,0,.248,2.559,2.559,0,0,1-.117.541,3.011,3.011,0,0,1-.248.56,2.219,2.219,0,0,1-.358.471A1.085,1.085,0,0,1,15.521,3.506Z"/></svg>
