<svg xmlns="http://www.w3.org/2000/svg" viewBox="0 0 23.931 7.983"><defs><style>.a{fill:#2f2121;}</style></defs><path class="a" d="M8.264,2.762a1.207,1.207,0,0,1-.485.33A1.181,1.181,0,0,1,6.215,2.4a1.207,1.207,0,0,1,.024-.976A1.183,1.183,0,0,1,6.922.836,1.162,1.162,0,0,1,7.5.767l.187.491a.746.746,0,0,0-.613-.044.772.772,0,0,0-.437,1l.01.025a.766.766,0,0,0,.972.474l.04-.016a.7.7,0,0,0,.414-.427ZM8.937.341l.374,1.884.7-.139.074.381-1.14.226L8.494.429ZM10.922.066l.068,1.448a.51.51,0,0,0,.127.337.5.5,0,0,0,.71-.009l.023-.026a.5.5,0,0,0,.1-.347L11.875.021,12.325,0l.067,1.41a.973.973,0,0,1-.144.624,1.023,1.023,0,0,1-1.44.132c-.023-.019-.045-.04-.067-.061a.973.973,0,0,1-.2-.607L10.473.088ZM13.745.09a.907.907,0,0,1,.546.2.605.605,0,0,1,.166.5.494.494,0,0,1-.3.425.539.539,0,0,1,.284.175.59.59,0,0,1,.122.447.618.618,0,0,1-.243.444.85.85,0,0,1-.6.127l-.771-.078.233-2.3Zm-.316,1.919.192.02A.618.618,0,0,0,13.934,2a.3.3,0,0,0,.168-.251.278.278,0,0,0-.142-.279.753.753,0,0,0-.3-.076l-.165-.016Zm.1-.978.127.013a.3.3,0,0,0,.37-.223A.27.27,0,0,0,14.033.78c.021-.21-.133-.306-.315-.324L13.587.443Zm3.745,1.758-.875-.32-.358.385-.458-.167L17.307.86l.333.121.114,2.5L17.3,3.313Zm0-.39-.024-.893-.593.666ZM19.9,2.082a.841.841,0,0,1,.413.453.654.654,0,0,1-.074.562.627.627,0,0,1-.512.324.644.644,0,0,1-.268-.045l.111,1.2-.481-.291-.045-1.112L19,3.148l-.481.793-.385-.233,1.2-1.973Zm-.737.794.111.067c.074.045.384.222.56-.069s-.122-.481-.193-.522l-.116-.07Zm3.061,1.453L21.6,3.782l-.339.389.6.523-.255.292L21,4.462l-.414.474.626.547-.256.291-.964-.842,1.519-1.738.964.842Zm.446,2.7-.575-.732-.507.139-.3-.383L23.713,5.4l.218.277L22.713,7.866l-.3-.381Zm.207-.33.449-.772-.856.255ZM0,6.851,2.012,7.983l.222-.392-.888-.5L1.7,6.459l-.338-.191L1.007,6.9.558,6.649l.381-.676L.6,5.783ZM3.3,5.317l-.612.7.231.472-.32.367L1.514,4.593l.232-.266,2.374.789L3.8,5.481Zm-.363-.142-.842-.3.41.794Zm1.494-.319L3.149,2.94l.259-.174,2.024.5-.857-1.28.374-.25L6.233,3.652l-.259.173-2.026-.5L4.807,4.6Z"/></svg>